<svg width="44" height="81" viewBox="0 0 44 81" fill="none" xmlns="http://www.w3.org/2000/svg">
<path d="M16.6066 80.5824C15.886 80.404 15.3618 79.7791 15.3618 79.0644V49.7208H2.41007C1.82837 49.7208 1.29096 49.3525 0.998916 48.868C0.708067 48.3835 0.70687 47.7516 0.996522 47.2671L28.6618 0.981538C29.0293 0.365824 29.7139 0.0562403 30.4273 0.239228C31.1406 0.422216 31.5691 1.03448 31.5691 1.74456V34.1357H42.0552C42.6321 34.1357 43.166 34.3141 43.4592 34.7917C43.7524 35.2693 43.762 35.8033 43.4831 36.2878L18.463 79.8493C18.08 80.5168 17.2709 80.7458 16.6078 80.5813L16.6066 80.5824ZM5.22759 46.671H17.0351C17.9352 46.671 18.5336 47.1463 18.5336 48.0129V72.9809L39.294 37.1855H30.0754C29.1753 37.1855 28.3985 36.3396 28.3985 35.4742V7.61629L5.22759 46.671Z" fill="white"/>
</svg>
