<svg width="143" height="114" viewBox="0 0 143 114" fill="none" xmlns="http://www.w3.org/2000/svg">
<path d="M22 113.5H36L93.5 52L95.5 13L84.5 17L70.5 0.5L56.5 17L46 13L49 64.5L28.5 46.5L24.5 54.5L7 52L10 69L0 73.5L32 104.5L22 113.5Z" fill="#1DBF73"/>
<path d="M129.5 58.5L126 45.5L63.5 113.5H78.5L129.5 58.5Z" fill="#1DBF73"/>
<path d="M57.5 113.5H42L106 44L109.5 57L57.5 113.5Z" fill="#1DBF73"/>
<path d="M99.5 113.5L142.5 67L129 65.5L84.5 113.5H99.5Z" fill="#1DBF73"/>
<path d="M106.5 113.5L117 101.5L127 113.5H106.5Z" fill="#1DBF73"/>
</svg>
